# xmcd
#
# Track frame offsets:
#	150
#	24871
#	48815
#	67060
#	92550
#	114405
#	132022
#	146917
#	162631
#
# Disc length: 2487
#
# Revision: 1
# Processed by: cddbd v1.5.1PL0 Copyright (c) Steve Scherf et al.
# Submitted via: ExactAudioCopy v0.90a11
# Normalized: r0:TDELIM( - )
#
DISCID=7609b509
DTITLE=Great Soul Blues - A Celebration Of Blues
DYEAR=1900
DGENRE=
TTITLE0=G.C. Cameron - Night Like This In Georgia
TTITLE1=Ernie Johnson - Share You With Someone
TTITLE2=Johnnie Taylor - You Knocked My Heart Out Of Line
TTITLE3=Mel Waiters - Woman In Need
TTITLE4=Latimore - Blues Territory
TTITLE5=Dorothy Moore - I'll Always Love You
TTITLE6=Artie White - If You Don't Love Me
TTITLE7=Z.Z. Hill - It's Been So Long
TTITLE8=Stan Mosely - Makes You Wanna Cry
EXTD=
EXTT0=
EXTT1=
EXTT2=
EXTT3=
EXTT4=
EXTT5=
EXTT6=
EXTT7=
EXTT8=
PLAYORDER=
